<svg xmlns="http://www.w3.org/2000/svg" xmlns:xlink="http://www.w3.org/1999/xlink" width="500" zoomAndPan="magnify" viewBox="0 0 375 374.999991" height="500" preserveAspectRatio="xMidYMid meet" version="1.0"><path fill="#ffffff" d="M 193.5625 175.832031 L 128.246094 127.144531 L 128.246094 147.8125 L 113.546875 138.535156 L 113.546875 97.839844 L 193.472656 157.367188 L 282.03125 89.660156 C 257.6875 67.523438 225.347656 53.925781 189.886719 53.925781 C 138.535156 53.925781 93.703125 82.3125 70.277344 124.296875 L 192.738281 211.476562 L 270.089844 151.582031 L 270.089844 245.101562 C 270.089844 250.246094 269.078125 255.296875 267.054688 260.074219 C 265.128906 264.667969 262.371094 268.710938 258.789062 272.292969 C 255.296875 275.785156 251.164062 278.539062 246.570312 280.5625 C 241.792969 282.582031 236.832031 283.59375 231.597656 283.59375 L 224.339844 283.59375 C 219.195312 283.59375 214.140625 282.582031 209.363281 280.5625 C 204.769531 278.632812 200.730469 275.875 197.144531 272.292969 C 193.65625 268.800781 190.898438 264.667969 188.878906 260.074219 C 186.855469 255.296875 185.847656 250.335938 185.847656 245.101562 L 185.847656 243.261719 L 200.546875 243.261719 L 200.546875 245.101562 C 200.546875 258.144531 211.109375 268.710938 224.15625 268.710938 L 231.414062 268.710938 C 244.457031 268.710938 255.023438 258.144531 255.023438 245.101562 L 255.023438 181.621094 L 192.550781 229.941406 L 63.570312 137.984375 C 56.773438 154.246094 52.914062 172.160156 52.914062 190.808594 C 52.914062 266.320312 114.28125 327.6875 189.796875 327.6875 C 265.3125 327.6875 326.679688 266.320312 326.679688 190.808594 C 326.679688 156.082031 313.726562 124.386719 292.320312 100.226562 Z M 128.246094 274.679688 L 113.546875 274.679688 L 113.546875 192.460938 L 128.246094 203.394531 Z M 187.5 0 C 83.964844 0 0 83.964844 0 187.5 C 0 291.035156 83.964844 375 187.5 375 C 291.035156 375 375 291.035156 375 187.5 C 375 83.964844 291.035156 0 187.5 0 Z M 298.566406 299.484375 C 284.417969 313.632812 267.976562 324.65625 249.695312 332.464844 C 230.769531 340.457031 210.652344 344.59375 189.886719 344.59375 C 169.125 344.59375 149.007812 340.550781 130.082031 332.464844 C 111.800781 324.75 95.359375 313.632812 81.210938 299.484375 C 67.0625 285.339844 56.039062 268.894531 48.230469 250.613281 C 40.238281 231.6875 36.105469 211.570312 36.105469 190.808594 C 36.105469 170.046875 40.144531 149.925781 48.230469 131 C 48.6875 129.992188 49.058594 128.980469 49.515625 127.96875 C 51.628906 123.378906 53.925781 118.875 56.40625 114.464844 C 63.113281 102.707031 71.472656 91.867188 81.117188 82.128906 C 95.265625 67.980469 111.710938 56.957031 129.992188 49.148438 C 148.914062 41.15625 169.035156 37.023438 189.796875 37.023438 C 210.558594 37.023438 230.675781 41.0625 249.601562 49.148438 C 266.597656 56.3125 282.03125 66.417969 295.535156 79.1875 C 296.546875 80.109375 297.554688 81.117188 298.476562 82.035156 C 301.046875 84.609375 303.4375 87.179688 305.734375 89.84375 C 316.390625 102.0625 325.023438 115.84375 331.363281 130.910156 C 339.355469 149.835938 343.488281 169.953125 343.488281 190.714844 C 343.488281 211.476562 339.449219 231.597656 331.363281 250.519531 C 323.738281 268.984375 312.621094 285.429688 298.566406 299.484375 Z M 298.566406 299.484375 " fill-opacity="1" fill-rule="nonzero"/></svg>