<svg xmlns="http://www.w3.org/2000/svg" xmlns:xlink="http://www.w3.org/1999/xlink" width="500" zoomAndPan="magnify" viewBox="0 0 375 374.999991" height="500" preserveAspectRatio="xMidYMid meet" version="1.0"><defs><clipPath id="5b9ee2eb52"><path d="M 5.453125 79 L 369.203125 79 L 369.203125 281 L 5.453125 281 Z M 5.453125 79 " clip-rule="nonzero"/></clipPath><clipPath id="2c9e6cb21e"><path d="M 83 0 L 292 0 L 292 374.824219 L 83 374.824219 Z M 83 0 " clip-rule="nonzero"/></clipPath></defs><g clip-path="url(#5b9ee2eb52)"><path fill="#000000" d="M 5.453125 280.15625 L 5.453125 79.644531 L 187.367188 176.152344 L 369.203125 79.644531 L 369.203125 280.15625 L 337.710938 280.15625 L 337.710938 131.609375 L 187.367188 211.46875 L 37.023438 131.609375 L 37.023438 280.15625 Z M 5.453125 280.15625 " fill-opacity="1" fill-rule="nonzero"/></g><g clip-path="url(#2c9e6cb21e)"><path fill="#000000" d="M 83.4375 -0.140625 L 291.296875 -0.140625 L 291.296875 140.90625 L 259.726562 140.90625 L 259.726562 31.425781 L 83.4375 31.425781 Z M 291.296875 174.351562 L 291.296875 270.859375 C 291.296875 298.679688 280.121094 324.699219 261.601562 343.222656 C 241.207031 361.816406 215.1875 374.789062 187.367188 374.789062 L 83.4375 374.789062 L 83.4375 270.859375 L 115.007812 287.582031 L 115.007812 343.296875 L 187.367188 343.296875 C 207.761719 343.296875 226.359375 334 239.332031 321.027344 C 252.304688 308.054688 259.726562 289.457031 259.726562 270.933594 L 259.726562 191.074219 Z M 291.296875 174.351562 " fill-opacity="1" fill-rule="nonzero"/></g></svg>